<svg xmlns="http://www.w3.org/2000/svg" xmlns:xlink="http://www.w3.org/1999/xlink" version="1.1" x="0px" y="0px" viewBox="0 0 64 80" enable-background="new 0 0 64 64" xml:space="preserve"><g><g><path d="M25.0957031,17.1640625C25.4863281,17.5546875,25.9980469,17.75,26.5097656,17.75    s1.0234375-0.1953125,1.4140625-0.5859375c0.78125-0.7807617,0.78125-2.0473633,0-2.828125l-8.7487183-8.7487183    c-0.0933228-0.0935059-0.1963501-0.177063-0.3066406-0.2507324c-0.0474854-0.0317383-0.098999-0.0533447-0.1484375-0.0805664    c-0.0646362-0.0357056-0.1270142-0.074646-0.1957397-0.1030884c-0.0650024-0.0268555-0.1326904-0.0422363-0.199646-0.0619507    c-0.0578613-0.0171509-0.1133423-0.0394897-0.1733398-0.0513916c-0.2584839-0.0514526-0.5245972-0.0514526-0.7830811,0    c-0.0599976,0.0119019-0.1154785,0.0342407-0.1733398,0.0513916c-0.0669556,0.0197144-0.1346436,0.0350952-0.199646,0.0619507    c-0.0687256,0.0284424-0.1311035,0.0673828-0.1957397,0.1030884c-0.0494385,0.0272217-0.1009521,0.0488281-0.1484375,0.0805664    c-0.1102905,0.0736694-0.2133179,0.1572266-0.3066406,0.2507324l-8.7487183,8.7487183    c-0.78125,0.7807617-0.78125,2.0473633,0,2.828125c0.78125,0.78125,2.046875,0.78125,2.828125,0l5.3359375-5.3355713V57    c0,1.1044922,0.8955078,2,2,2s2-0.8955078,2-2V11.8284912L25.0957031,17.1640625z"/><path d="M54.9902344,22.125h-31.25c-1.1044922,0-2,0.8955078-2,2s0.8955078,2,2,2h31.25c1.1044922,0,2-0.8955078,2-2    S56.0947266,22.125,54.9902344,22.125z"/><path d="M49.4902344,31.625h-25.75c-1.1044922,0-2,0.8955078-2,2s0.8955078,2,2,2h25.75c1.1044922,0,2-0.8955078,2-2    S50.5947266,31.625,49.4902344,31.625z"/><path d="M43.9902344,41.125h-20.25c-1.1044922,0-2,0.8955078-2,2s0.8955078,2,2,2h20.25c1.1044922,0,2-0.8955078,2-2    S45.0947266,41.125,43.9902344,41.125z"/><path d="M38.4902344,50.625h-14.75c-1.1044922,0-2,0.8955078-2,2s0.8955078,2,2,2h14.75c1.1044922,0,2-0.8955078,2-2    S39.5947266,50.625,38.4902344,50.625z"/></g></g><text x="0" y="79" fill="#000000" font-size="5px" font-weight="bold" font-family="'Helvetica Neue', Helvetica, Arial-Unicode, Arial, Sans-serif">Created by Berkah Icon</text><text x="0" y="84" fill="#000000" font-size="5px" font-weight="bold" font-family="'Helvetica Neue', Helvetica, Arial-Unicode, Arial, Sans-serif">from the Noun Project</text></svg>