<svg xmlns="http://www.w3.org/2000/svg" xmlns:xlink="http://www.w3.org/1999/xlink" viewBox="0 0 100 125" version="1.1" x="0px" y="0px"><title>Soft Tick</title><desc>Created with Sketch.</desc><g stroke="none" stroke-width="1" fill="none" fill-rule="evenodd"><g fill="#000000"><path d="M62.3822008,62.8665969 C62.9502178,63.4666302 63.9113177,63.4910939 64.5119626,62.9368463 L66.6736267,60.9421615 C67.2818446,60.3809259 67.315469,59.4333797 66.7569444,58.8345663 L45.792861,36.3582501 C45.2306582,35.755493 44.3274133,35.771461 43.7764004,36.3927956 L32.773405,48.8000207 C32.2219474,49.4218568 32.2750502,50.3879139 32.875115,50.9421615 L35.0346911,52.9368463 C35.6423215,53.498082 36.5872624,53.4459195 37.1344615,52.8324616 L44.1112827,45.0108376 C44.4777899,44.5999512 45.0828132,44.5921278 45.4602616,44.9908511 L62.3822008,62.8665969 Z" transform="translate(49.766003, 49.859192) scale(1, -1) translate(-49.766003, -49.859192) "/></g></g><text x="0" y="115" fill="#000000" font-size="5px" font-weight="bold" font-family="'Helvetica Neue', Helvetica, Arial-Unicode, Arial, Sans-serif">Created by Landan Lloyd</text><text x="0" y="120" fill="#000000" font-size="5px" font-weight="bold" font-family="'Helvetica Neue', Helvetica, Arial-Unicode, Arial, Sans-serif">from the Noun Project</text></svg>